HIERARCHY
ROOT hip
{
	OFFSET 0.000000 0.000000 0.000000
	CHANNELS 6 Xposition Yposition Zposition Xrotation Zrotation Yrotation 
	JOINT abdomen
	{
		OFFSET 0.000000 3.422050 0.000000
		CHANNELS 3 Xrotation Zrotation Yrotation 
		JOINT chest
		{
			OFFSET 0.000000 8.486693 -0.684411
			CHANNELS 3 Xrotation Zrotation Yrotation 
			JOINT neck
			{
				OFFSET 0.000000 10.266162 -0.273764
				CHANNELS 3 Xrotation Zrotation Yrotation 
				JOINT head
				{
					OFFSET 0.000000 3.148285 0.000000
					CHANNELS 3 Xrotation Zrotation Yrotation 
					End Site
					{
						OFFSET 0.000000 3.148289 0.000000
					}
				}
			}
			JOINT lCollar
			{
				OFFSET 3.422053 6.707223 -0.821293
				CHANNELS 3 Yrotation Zrotation Xrotation 
				JOINT lShldr
				{
					OFFSET 3.285171 0.000000 0.000000
					CHANNELS 3 Zrotation Yrotation Xrotation 
					JOINT lForeArm
					{
						OFFSET 10.129278 0.000000 0.000000
						CHANNELS 3 Yrotation Zrotation Xrotation 
						JOINT lHand
						{
							OFFSET 8.486692 0.000000 0.000000
							CHANNELS 3 Zrotation Yrotation Xrotation 
							End Site
							{
								OFFSET 4.106464 0.000000 0.000000
							}
						}
					}
				}
			}
			JOINT rCollar
			{
				OFFSET -3.558935 6.707223 -0.821293
				CHANNELS 3 Yrotation Zrotation Xrotation 
				JOINT rShldr
				{
					OFFSET -3.148289 0.000000 0.000000
					CHANNELS 3 Zrotation Yrotation Xrotation 
					JOINT rForeArm
					{
						OFFSET -10.266159 0.000000 0.000000
						CHANNELS 3 Yrotation Zrotation Xrotation 
						JOINT rHand
						{
							OFFSET -8.349810 0.000000 0.000000
							CHANNELS 3 Zrotation Yrotation Xrotation 
							End Site
							{
								OFFSET -4.106464 0.000000 0.000000
							}
						}
					}
				}
			}
		}
	}
	JOINT lThigh
	{
		OFFSET 5.338403 -1.642589 1.368821
		CHANNELS 3 Xrotation Zrotation Yrotation 
		JOINT lShin
		{
			OFFSET -2.053232 -20.121670 0.000000
			CHANNELS 3 Xrotation Zrotation Yrotation 
			JOINT lFoot
			{
				OFFSET 0.000000 -19.300380 -1.231939
				CHANNELS 3 Xrotation Yrotation Zrotation 
				End Site
				{
					OFFSET 0.000000 -2.463878 4.653993
				}
			}
		}
	}
	JOINT rThigh
	{
		OFFSET -5.338403 -1.642589 1.368821
		CHANNELS 3 Xrotation Zrotation Yrotation 
		JOINT rShin
		{
			OFFSET 2.053232 -20.121670 0.000000
			CHANNELS 3 Xrotation Zrotation Yrotation 
			JOINT rFoot
			{
				OFFSET 0.000000 -19.300380 -1.231939
				CHANNELS 3 Xrotation Yrotation Zrotation 
				End Site
				{
					OFFSET 0.000000 -2.463878 4.653993
				}
			}
		}
	}
}
MOTION
Frames: 6
Frame Time: 0.033264
19.995886 16.214296 -1.404856 -52.817142 -0.004706 -179.997665 8.363153 -0.156321 -0.138270 32.099895 -0.588482 -0.835789 -43.095078 0.000000 0.000000 -26.877111 0.000000 0.000000 -65.443977 10.869541 -2.258382 0.332357 -5.432954 -3.813981 -5.926546 0.484005 -11.909120 56.629353 -4.333406 -12.123509 60.102859 -8.471773 -3.537951 -1.940727 18.837414 -4.042406 7.526408 -3.025175 -11.714322 -60.917168 0.703723 -3.936269 -169.852936 42.712807 -2.704102 108.849091 15.289721 2.699324 -2.078438 -5.466853 17.156006 -169.102402 -40.420155 3.663107 108.829262 -15.328000 -2.713173 -2.063670 3.700523 -14.847578 
19.995886 16.255148 -1.449011 -53.142475 -0.004699 -179.997650 8.062885 -0.156301 -0.138270 32.400204 -0.588467 -0.835766 -43.145744 0.000000 0.000000 -26.936686 0.000000 0.000000 -65.997177 11.120044 -2.156056 0.240744 -4.654140 -3.826639 -6.162914 0.503954 -11.900968 57.051884 -4.281071 -12.208879 59.302155 -8.462436 -3.679541 -2.058987 19.869963 -4.075259 7.253626 -3.133691 -11.713200 -61.168777 0.672498 -4.010580 -169.880890 42.331139 -2.883529 108.849091 15.289721 2.699324 -2.218776 -5.162632 16.657753 -169.164429 -40.160084 3.787308 108.829262 -15.328000 -2.713173 -2.191752 3.485240 -14.476051 
19.995886 16.295998 -1.493165 -53.467800 -0.004692 -179.997650 7.762628 -0.156282 -0.138271 32.700512 -0.588453 -0.835743 -43.196411 0.000000 0.000000 -26.996254 0.000000 0.000000 -66.551247 11.369538 -2.051191 0.149069 -3.875496 -3.840531 -6.399280 0.523868 -11.892733 57.474293 -4.228115 -12.293854 58.501656 -8.451145 -3.820956 -2.178636 20.902102 -4.110602 6.980823 -3.242207 -11.712590 -61.420345 0.640947 -4.084749 -169.907059 41.949436 -3.061616 108.849091 15.289721 2.699324 -2.356373 -4.857240 16.160536 -169.225494 -39.899914 3.910666 108.829262 -15.328000 -2.713173 -2.318396 3.269147 -14.105111 
19.995886 16.336849 -1.537320 -53.793102 -0.004685 -179.997635 7.462380 -0.156262 -0.138272 33.000805 -0.588438 -0.835720 -43.247074 0.000000 0.000000 -27.055824 0.000000 0.000000 -67.106194 11.617987 -1.943791 0.057307 -3.097091 -3.855655 -6.635646 0.543748 -11.884418 57.896542 -4.174538 -12.378416 57.701447 -8.437907 -3.962152 -2.299759 21.933661 -4.148499 6.708002 -3.350721 -11.712500 -61.671856 0.609072 -4.158777 -169.931503 41.567703 -3.238403 108.849091 15.289721 2.699324 -2.491225 -4.550720 15.664350 -169.285583 -39.639648 4.033194 108.829262 -15.328000 -2.713173 -2.443600 3.052260 -13.734765 
19.995886 16.377699 -1.581475 -54.118382 -0.004679 -179.997620 7.162153 -0.156242 -0.138273 33.301071 -0.588423 -0.835696 -43.297729 0.000000 0.000000 -27.115385 0.000000 0.000000 -67.661972 11.865345 -1.833866 -0.034568 -2.319007 -3.872009 -6.872005 0.563592 -11.876019 58.318657 -4.120350 -12.462570 56.901604 -8.422723 -4.103087 -2.422447 22.964470 -4.189021 6.435166 -3.459228 -11.712929 -61.923317 0.576874 -4.232660 -169.954239 41.185947 -3.413918 108.849091 15.289721 2.699324 -2.623327 -4.243114 15.169205 -169.344742 -39.379295 4.154906 108.829262 -15.328000 -2.713173 -2.567358 2.834596 -13.365005 
19.995886 16.418550 -1.625630 -54.443634 -0.004672 -179.997604 6.861945 -0.156222 -0.138273 33.601330 -0.588409 -0.835673 -42.121113 0.000000 0.000000 -25.481054 0.000000 0.000000 -68.218605 12.111582 -1.721423 -0.126579 -1.541313 -3.889597 -7.108361 0.583401 -11.867541 58.740578 -4.065551 -12.546298 56.102211 -8.405603 -4.243721 -2.546792 23.994345 -4.232239 6.162314 -3.567724 -11.713872 -62.174728 0.544354 -4.306398 -169.975266 40.804184 -3.588196 108.849091 15.289721 2.699324 -2.752674 -3.934464 14.675085 -169.402969 -39.118881 4.275812 108.829262 -15.328000 -2.713173 -2.689668 2.616173 -12.995843 
